<?xml version="1.0" encoding="utf-8"?>
<!-- Generator: Adobe Illustrator 22.0.1, SVG Export Plug-In . SVG Version: 6.00 Build 0)  -->
<svg version="1.1" id="Capa_1" xmlns="http://www.w3.org/2000/svg" xmlns:xlink="http://www.w3.org/1999/xlink" x="0px" y="0px"
	 viewBox="0 0 612 612" style="enable-background:new 0 0 612 612;" xml:space="preserve">
<path d="M163.6,435.1c-26.7-19.1-47.3-42.1-62-69.3c-14.6-27.2-22-56-22-86.3c0-27.3,5.9-53.2,17.7-77.5
	c11.8-24.4,28-45.5,48.5-63.5c20.5-17.9,44.6-32.1,72-42.7S274.7,80,306,80s60.7,5.5,88.2,15.9s51.5,24.7,72,42.7
	s36.7,39.1,48.5,63.4s17.7,50.1,17.7,77.5c0,27.7-5.9,53.6-17.7,78s-28,45.5-48.5,63.5c-20.5,17.9-44.5,32.2-72,42.7
	c-27.4,10.6-56.8,15.8-88.2,15.8c-22.6,0-45-3-67-9l-102.5,60c-2,1-4,1.5-6,1.5c-3.3,0-6-1-8-3c-4.3-4.4-5.2-9-2.5-14L163.6,435.1z"
	/>
</svg>
