<?xml version="1.0" encoding="utf-8"?>
<svg version="1.1" id="图层_1" xmlns="http://www.w3.org/2000/svg" xmlns:xlink="http://www.w3.org/1999/xlink" x="0px" y="0px"
	 viewBox="0 0 200 200" style="enable-background:new 0 0 200 200;" xml:space="preserve">
<path d="M99.8,179c-43.6,0-79-35.4-79-79s35.4-79,79-79s79,35.4,79,79S143.4,179,99.8,179z M99.8,32.3c-37.3,0-67.7,30.4-67.7,67.7
	s30.4,67.7,67.7,67.7s67.7-30.4,67.7-67.7S137.1,32.3,99.8,32.3z"/>
<path d="M100,146.1c-15.7,0-30.3-7.1-40-19.5c-1.9-2.5-1.5-6,1-7.9c2.4-1.9,6-1.5,7.9,1c7.5,9.6,18.9,15.2,31.1,15.2
	c12.4,0,23.8-5.6,31.3-15.4c1.9-2.5,5.4-2.9,7.9-1s2.9,5.4,1,7.9C130.6,138.9,115.9,146.1,100,146.1z"/>
<path d="M74.6,100.6c-4.7,0-8.5-3.8-8.5-8.5V80.8c0-4.7,3.8-8.5,8.5-8.5s8.5,3.8,8.5,8.5v11.3C83.1,96.8,79.3,100.6,74.6,100.6z"/>
<path d="M125.4,100.6c-4.7,0-8.5-3.8-8.5-8.5V80.8c0-4.7,3.8-8.5,8.5-8.5c4.7,0,8.5,3.8,8.5,8.5v11.3
	C133.8,96.8,130,100.6,125.4,100.6z"/>
</svg>
